ffmpeg started on 2025-06-07 at 17:22:19
Report written to "D:\Convert\FFMetrics\reports\ssim_report-6.txt"
Log level: 32
Command line:
ffmpeg -hide_banner -nostdin -i "G:\\\xc0\xed\xe8\xec\xe5\\\xce\xed\xe3\xee\xe8\xed\xe3\xe8\\!_36_\xce\xf1\xe5\xed\xfc_2024\\DreamCast\\\xdd\xe9, \xd2\xee\xec\xe1\xee!\\\xd2\xc2-1\\[DC] Ooi! Tonbo - 09_Telegram_HEVC.mkv" -i "G:\\\xc0\xed\xe8\xec\xe5\\\xce\xed\xe3\xee\xe8\xed\xe3\xe8\\!_36_\xce\xf1\xe5\xed\xfc_2024\\DreamCast\\\xdd\xe9, \xd2\xee\xec\xe1\xee!\\\xd2\xc2-1\\[DC] Ooi! Tonbo - 09_Telegram.mp4" -lavfi "[0:v]settb=AVTB,setpts=PTS-STARTPTS,format=pix_fmts=yuv420p10,fps=24000/1001,scale=1920:1080:flags=bicubic[main];[1:v]settb=AVTB,setpts=PTS-STARTPTS,format=pix_fmts=yuv420p,fps=24000/1001,scale=1920:1080:flags=bicubic[ref];[main][ref]ssim=eof_action=endall:stats_file='D\\:/Convert/FFMetrics/logs/ssim_logfile-6.txt'" -f null -
Input #0, matroska,webm, from 'G:\Аниме\Онгоинги\!_36_Осень_2024\DreamCast\Эй, Томбо!\ТВ-1\[DC] Ooi! Tonbo - 09_Telegram_HEVC.mkv':
  Metadata:
    COMPATIBLE_BRANDS: isomiso2avc1mp41
    MAJOR_BRAND     : isom
    MINOR_VERSION   : 512
    ENCODER         : Lavf61.7.100
  Duration: 00:24:21.63, start: -0.021000, bitrate: 1091 kb/s
  Stream #0:0: Video: hevc (Main 10), yuv420p10le(tv, bt709, progressive), 1920x1080 [SAR 1:1 DAR 16:9], 23.98 fps, 23.98 tbr, 1k tbn (default)
      Metadata:
        HANDLER_NAME    : VideoHandler
        VENDOR_ID       : [0][0][0][0]
        ENCODER         : Lavc61.19.100 libx265
        BPS             : 895576
        DURATION        : 00:24:19.582708333
        NUMBER_OF_FRAMES: 34995
        NUMBER_OF_BYTES : 163395958
        _STATISTICS_WRITING_APP: mkvpropedit v66.0.0 ('Josie') 64-bit
        _STATISTICS_WRITING_DATE_UTC: 2025-06-05 14:54:13
        _STATISTICS_TAGS: BPS DURATION NUMBER_OF_FRAMES NUMBER_OF_BYTES
  Stream #0:1: Audio: aac (LC), 48000 Hz, stereo, fltp (default)
      Metadata:
        HANDLER_NAME    : SoundHandler
        VENDOR_ID       : [0][0][0][0]
        ENCODER         : Lavc61.19.100 aac
        BPS             : 192769
        DURATION        : 00:24:21.632000000
        NUMBER_OF_FRAMES: 68515
        NUMBER_OF_BYTES : 35219822
        _STATISTICS_WRITING_APP: mkvpropedit v66.0.0 ('Josie') 64-bit
        _STATISTICS_WRITING_DATE_UTC: 2025-06-05 14:54:13
        _STATISTICS_TAGS: BPS DURATION NUMBER_OF_FRAMES NUMBER_OF_BYTES
Input #1, mov,mp4,m4a,3gp,3g2,mj2, from 'G:\Аниме\Онгоинги\!_36_Осень_2024\DreamCast\Эй, Томбо!\ТВ-1\[DC] Ooi! Tonbo - 09_Telegram.mp4':
  Metadata:
    major_brand     : isom
    minor_version   : 512
    compatible_brands: isomiso2avc1mp41
    encoder         : Lavf60.16.100
  Duration: 00:24:21.59, start: 0.000000, bitrate: 3238 kb/s
  Stream #1:0[0x1](und): Video: h264 (High) (avc1 / 0x31637661), yuv420p(tv, bt709, progressive), 1920x1080 [SAR 1:1 DAR 16:9], 3094 kb/s, 23.98 fps, 23.98 tbr, 24k tbn (default)
      Metadata:
        handler_name    : VideoHandler
        vendor_id       : [0][0][0][0]
        encoder         : Lavc60.31.102 h264_qsv
  Stream #1:1[0x2](und): Audio: aac (HE-AACv2) (mp4a / 0x6134706D), 48000 Hz, stereo, fltp, 144 kb/s (default)
      Metadata:
        handler_name    : SoundHandler
        vendor_id       : [0][0][0][0]
Stream mapping:
  Stream #0:0 (hevc) -> settb:default
  Stream #1:0 (h264) -> settb:default
  ssim:default -> Stream #0:0 (wrapped_avframe)
  Stream #0:1 -> #0:1 (aac (native) -> pcm_s16le (native))
Output #0, null, to 'pipe:':
  Metadata:
    COMPATIBLE_BRANDS: isomiso2avc1mp41
    MAJOR_BRAND     : isom
    MINOR_VERSION   : 512
    encoder         : Lavf61.7.100
  Stream #0:0: Video: wrapped_avframe, yuv420p10le(tv, bt709, progressive), 1920x1080 [SAR 1:1 DAR 16:9], q=2-31, 200 kb/s, 23.98 fps, 23.98 tbn
      Metadata:
        encoder         : Lavc61.19.100 wrapped_avframe
  Stream #0:1: Audio: pcm_s16le, 48000 Hz, stereo, s16, 1536 kb/s (default)
      Metadata:
        HANDLER_NAME    : SoundHandler
        VENDOR_ID       : [0][0][0][0]
        _STATISTICS_TAGS: BPS DURATION NUMBER_OF_FRAMES NUMBER_OF_BYTES
        BPS             : 192769
        DURATION        : 00:24:21.632000000
        NUMBER_OF_FRAMES: 68515
        NUMBER_OF_BYTES : 35219822
        _STATISTICS_WRITING_APP: mkvpropedit v66.0.0 ('Josie') 64-bit
        _STATISTICS_WRITING_DATE_UTC: 2025-06-05 14:54:13
        encoder         : Lavc61.19.100 pcm_s16le
frame=  175 fps=0.0 q=-0.0 size=N/A time=00:00:07.29 bitrate=N/A speed=14.4x    frame=  451 fps=437 q=-0.0 size=N/A time=00:00:18.81 bitrate=N/A speed=18.2x    frame=  720 fps=467 q=-0.0 size=N/A time=00:00:30.03 bitrate=N/A speed=19.5x    frame= 1000 fps=483 q=-0.0 size=N/A time=00:00:41.70 bitrate=N/A speed=20.2x    frame= 1279 fps=496 q=-0.0 size=N/A time=00:00:53.34 bitrate=N/A speed=20.7x    frame= 1521 fps=493 q=-0.0 size=N/A time=00:01:03.43 bitrate=N/A speed=20.5x    frame= 1772 fps=490 q=-0.0 size=N/A time=00:01:13.90 bitrate=N/A speed=20.4x    frame= 2073 fps=503 q=-0.0 size=N/A time=00:01:26.46 bitrate=N/A speed=  21x    frame= 2334 fps=504 q=-0.0 size=N/A time=00:01:37.34 bitrate=N/A speed=  21x    frame= 2592 fps=503 q=-0.0 size=N/A time=00:01:48.10 bitrate=N/A speed=  21x    frame= 2824 fps=498 q=-0.0 size=N/A time=00:01:57.78 bitrate=N/A speed=20.8x    frame= 3045 fps=492 q=-0.0 size=N/A time=00:02:07.00 bitrate=N/A speed=20.5x    frame= 3267 fps=488 q=-0.0 size=N/A time=00:02:16.26 bitrate=N/A speed=20.3x    frame= 3496 fps=485 q=-0.0 size=N/A time=00:02:25.81 bitrate=N/A speed=20.2x    frame= 3722 fps=481 q=-0.0 size=N/A time=00:02:35.23 bitrate=N/A speed=20.1x    frame= 3930 fps=477 q=-0.0 size=N/A time=00:02:43.91 bitrate=N/A speed=19.9x    frame= 4147 fps=473 q=-0.0 size=N/A time=00:02:52.96 bitrate=N/A speed=19.7x    frame= 4371 fps=471 q=-0.0 size=N/A time=00:03:02.30 bitrate=N/A speed=19.7x    frame= 4579 fps=467 q=-0.0 size=N/A time=00:03:10.98 bitrate=N/A speed=19.5x    frame= 4840 fps=469 q=-0.0 size=N/A time=00:03:21.86 bitrate=N/A speed=19.6x    frame= 5076 fps=469 q=-0.0 size=N/A time=00:03:31.71 bitrate=N/A speed=19.6x    frame= 5357 fps=473 q=-0.0 size=N/A time=00:03:43.43 bitrate=N/A speed=19.7x    frame= 5620 fps=474 q=-0.0 size=N/A time=00:03:54.40 bitrate=N/A speed=19.8x    frame= 5861 fps=474 q=-0.0 size=N/A time=00:04:04.45 bitrate=N/A speed=19.8x    frame= 6106 fps=474 q=-0.0 size=N/A time=00:04:14.67 bitrate=N/A speed=19.8x    frame= 6369 fps=475 q=-0.0 size=N/A time=00:04:25.64 bitrate=N/A speed=19.8x    frame= 6614 fps=475 q=-0.0 size=N/A time=00:04:35.85 bitrate=N/A speed=19.8x    frame= 6871 fps=476 q=-0.0 size=N/A time=00:04:46.57 bitrate=N/A speed=19.8x    frame= 7070 fps=473 q=-0.0 size=N/A time=00:04:54.87 bitrate=N/A speed=19.7x    frame= 7317 fps=473 q=-0.0 size=N/A time=00:05:05.17 bitrate=N/A speed=19.7x    frame= 7530 fps=471 q=-0.0 size=N/A time=00:05:14.06 bitrate=N/A speed=19.6x    frame= 7710 fps=467 q=-0.0 size=N/A time=00:05:21.57 bitrate=N/A speed=19.5x    frame= 7995 fps=470 q=-0.0 size=N/A time=00:05:33.45 bitrate=N/A speed=19.6x    frame= 8276 fps=472 q=-0.0 size=N/A time=00:05:45.17 bitrate=N/A speed=19.7x    frame= 8561 fps=474 q=-0.0 size=N/A time=00:05:57.06 bitrate=N/A speed=19.8x    frame= 8829 fps=476 q=-0.0 size=N/A time=00:06:08.24 bitrate=N/A speed=19.8x    frame= 9108 fps=477 q=-0.0 size=N/A time=00:06:19.87 bitrate=N/A speed=19.9x    frame= 9372 fps=478 q=-0.0 size=N/A time=00:06:30.89 bitrate=N/A speed=  20x    frame= 9627 fps=479 q=-0.0 size=N/A time=00:06:41.52 bitrate=N/A speed=  20x    frame= 9914 fps=481 q=-0.0 size=N/A time=00:06:53.49 bitrate=N/A speed=  20x    frame=10188 fps=482 q=-0.0 size=N/A time=00:07:04.92 bitrate=N/A speed=20.1x    frame=10444 fps=482 q=-0.0 size=N/A time=00:07:15.60 bitrate=N/A speed=20.1x    frame=10716 fps=483 q=-0.0 size=N/A time=00:07:26.94 bitrate=N/A speed=20.2x    frame=10979 fps=484 q=-0.0 size=N/A time=00:07:37.91 bitrate=N/A speed=20.2x    frame=11253 fps=485 q=-0.0 size=N/A time=00:07:49.34 bitrate=N/A speed=20.2x    frame=11558 fps=487 q=-0.0 size=N/A time=00:08:02.06 bitrate=N/A speed=20.3x    frame=11807 fps=487 q=-0.0 size=N/A time=00:08:12.45 bitrate=N/A speed=20.3x    frame=12064 fps=488 q=-0.0 size=N/A time=00:08:23.16 bitrate=N/A speed=20.3x    frame=12325 fps=488 q=-0.0 size=N/A time=00:08:34.05 bitrate=N/A speed=20.3x    frame=12579 fps=488 q=-0.0 size=N/A time=00:08:44.64 bitrate=N/A speed=20.3x    frame=12871 fps=490 q=-0.0 size=N/A time=00:08:56.82 bitrate=N/A speed=20.4x    frame=13142 fps=490 q=-0.0 size=N/A time=00:09:08.13 bitrate=N/A speed=20.4x    frame=13373 fps=489 q=-0.0 size=N/A time=00:09:17.76 bitrate=N/A speed=20.4x    frame=13640 fps=490 q=-0.0 size=N/A time=00:09:28.90 bitrate=N/A speed=20.4x    frame=13870 fps=489 q=-0.0 size=N/A time=00:09:38.49 bitrate=N/A speed=20.4x    frame=14120 fps=489 q=-0.0 size=N/A time=00:09:48.92 bitrate=N/A speed=20.4x    frame=14383 fps=489 q=-0.0 size=N/A time=00:09:59.89 bitrate=N/A speed=20.4x    frame=14658 fps=490 q=-0.0 size=N/A time=00:10:11.36 bitrate=N/A speed=20.4x    frame=14878 fps=489 q=-0.0 size=N/A time=00:10:20.53 bitrate=N/A speed=20.4x    frame=15141 fps=489 q=-0.0 size=N/A time=00:10:31.50 bitrate=N/A speed=20.4x    frame=15378 fps=489 q=-0.0 size=N/A time=00:10:41.39 bitrate=N/A speed=20.4x    frame=15659 fps=490 q=-0.0 size=N/A time=00:10:53.11 bitrate=N/A speed=20.4x    frame=15962 fps=491 q=-0.0 size=N/A time=00:11:05.74 bitrate=N/A speed=20.5x    frame=16214 fps=491 q=-0.0 size=N/A time=00:11:16.25 bitrate=N/A speed=20.5x    frame=16493 fps=492 q=-0.0 size=N/A time=00:11:27.89 bitrate=N/A speed=20.5x    frame=16754 fps=492 q=-0.0 size=N/A time=00:11:38.78 bitrate=N/A speed=20.5x    frame=17047 fps=493 q=-0.0 size=N/A time=00:11:51.00 bitrate=N/A speed=20.6x    frame=17244 fps=492 q=-0.0 size=N/A time=00:11:59.21 bitrate=N/A speed=20.5x    frame=17504 fps=492 q=-0.0 size=N/A time=00:12:10.06 bitrate=N/A speed=20.5x    frame=17720 fps=491 q=-0.0 size=N/A time=00:12:19.07 bitrate=N/A speed=20.5x    frame=18001 fps=492 q=-0.0 size=N/A time=00:12:30.79 bitrate=N/A speed=20.5x    frame=18253 fps=492 q=-0.0 size=N/A time=00:12:41.30 bitrate=N/A speed=20.5x    frame=18477 fps=491 q=-0.0 size=N/A time=00:12:50.64 bitrate=N/A speed=20.5x    frame=18724 fps=491 q=-0.0 size=N/A time=00:13:00.94 bitrate=N/A speed=20.5x    frame=18995 fps=491 q=-0.0 size=N/A time=00:13:12.24 bitrate=N/A speed=20.5x    frame=19254 fps=491 q=-0.0 size=N/A time=00:13:23.05 bitrate=N/A speed=20.5x    frame=19498 fps=491 q=-0.0 size=N/A time=00:13:33.22 bitrate=N/A speed=20.5x    frame=19788 fps=492 q=-0.0 size=N/A time=00:13:45.32 bitrate=N/A speed=20.5x    frame=20080 fps=493 q=-0.0 size=N/A time=00:13:57.50 bitrate=N/A speed=20.6x    frame=20369 fps=494 q=-0.0 size=N/A time=00:14:09.55 bitrate=N/A speed=20.6x    frame=20574 fps=493 q=-0.0 size=N/A time=00:14:18.10 bitrate=N/A speed=20.5x    frame=20816 fps=492 q=-0.0 size=N/A time=00:14:28.20 bitrate=N/A speed=20.5x    frame=21050 fps=492 q=-0.0 size=N/A time=00:14:37.96 bitrate=N/A speed=20.5x    frame=21315 fps=492 q=-0.0 size=N/A time=00:14:49.01 bitrate=N/A speed=20.5x    frame=21527 fps=491 q=-0.0 size=N/A time=00:14:57.85 bitrate=N/A speed=20.5x    frame=21742 fps=490 q=-0.0 size=N/A time=00:15:06.82 bitrate=N/A speed=20.4x    frame=22004 fps=491 q=-0.0 size=N/A time=00:15:17.75 bitrate=N/A speed=20.5x    frame=22239 fps=490 q=-0.0 size=N/A time=00:15:27.55 bitrate=N/A speed=20.4x    frame=22458 fps=489 q=-0.0 size=N/A time=00:15:36.68 bitrate=N/A speed=20.4x    frame=22686 fps=489 q=-0.0 size=N/A time=00:15:46.19 bitrate=N/A speed=20.4x    frame=22943 fps=489 q=-0.0 size=N/A time=00:15:56.91 bitrate=N/A speed=20.4x    frame=23201 fps=489 q=-0.0 size=N/A time=00:16:07.67 bitrate=N/A speed=20.4x    frame=23437 fps=489 q=-0.0 size=N/A time=00:16:17.51 bitrate=N/A speed=20.4x    frame=23712 fps=489 q=-0.0 size=N/A time=00:16:28.98 bitrate=N/A speed=20.4x    frame=23973 fps=489 q=-0.0 size=N/A time=00:16:39.87 bitrate=N/A speed=20.4x    frame=24241 fps=490 q=-0.0 size=N/A time=00:16:51.05 bitrate=N/A speed=20.4x    frame=24503 fps=490 q=-0.0 size=N/A time=00:17:01.97 bitrate=N/A speed=20.4x    frame=24774 fps=490 q=-0.0 size=N/A time=00:17:13.28 bitrate=N/A speed=20.4x    frame=25059 fps=491 q=-0.0 size=N/A time=00:17:25.16 bitrate=N/A speed=20.5x    frame=25331 fps=491 q=-0.0 size=N/A time=00:17:36.51 bitrate=N/A speed=20.5x    frame=25603 fps=492 q=-0.0 size=N/A time=00:17:47.85 bitrate=N/A speed=20.5x    frame=25871 fps=492 q=-0.0 size=N/A time=00:17:59.03 bitrate=N/A speed=20.5x    frame=26143 fps=492 q=-0.0 size=N/A time=00:18:10.38 bitrate=N/A speed=20.5x    frame=26418 fps=493 q=-0.0 size=N/A time=00:18:21.85 bitrate=N/A speed=20.5x    frame=26679 fps=493 q=-0.0 size=N/A time=00:18:32.73 bitrate=N/A speed=20.6x    frame=26977 fps=494 q=-0.0 size=N/A time=00:18:45.16 bitrate=N/A speed=20.6x    frame=27224 fps=493 q=-0.0 size=N/A time=00:18:55.46 bitrate=N/A speed=20.6x    frame=27494 fps=494 q=-0.0 size=N/A time=00:19:06.72 bitrate=N/A speed=20.6x    frame=27771 fps=494 q=-0.0 size=N/A time=00:19:18.28 bitrate=N/A speed=20.6x    frame=28046 fps=494 q=-0.0 size=N/A time=00:19:29.75 bitrate=N/A speed=20.6x    frame=28314 fps=495 q=-0.0 size=N/A time=00:19:40.92 bitrate=N/A speed=20.6x    frame=28535 fps=494 q=-0.0 size=N/A time=00:19:50.14 bitrate=N/A speed=20.6x    frame=28756 fps=494 q=-0.0 size=N/A time=00:19:59.36 bitrate=N/A speed=20.6x    frame=28936 fps=492 q=-0.0 size=N/A time=00:20:06.87 bitrate=N/A speed=20.5x    frame=29146 fps=491 q=-0.0 size=N/A time=00:20:15.63 bitrate=N/A speed=20.5x    frame=29377 fps=491 q=-0.0 size=N/A time=00:20:25.26 bitrate=N/A speed=20.5x    frame=29630 fps=491 q=-0.0 size=N/A time=00:20:35.81 bitrate=N/A speed=20.5x    frame=29842 fps=490 q=-0.0 size=N/A time=00:20:44.66 bitrate=N/A speed=20.5x    frame=30106 fps=491 q=-0.0 size=N/A time=00:20:55.67 bitrate=N/A speed=20.5x    frame=30382 fps=491 q=-0.0 size=N/A time=00:21:07.18 bitrate=N/A speed=20.5x    frame=30639 fps=491 q=-0.0 size=N/A time=00:21:17.90 bitrate=N/A speed=20.5x    frame=30913 fps=491 q=-0.0 size=N/A time=00:21:29.32 bitrate=N/A speed=20.5x    frame=31185 fps=492 q=-0.0 size=N/A time=00:21:40.67 bitrate=N/A speed=20.5x    frame=31410 fps=491 q=-0.0 size=N/A time=00:21:50.05 bitrate=N/A speed=20.5x    frame=31676 fps=491 q=-0.0 size=N/A time=00:22:01.15 bitrate=N/A speed=20.5x    frame=31953 fps=492 q=-0.0 size=N/A time=00:22:12.70 bitrate=N/A speed=20.5x    frame=32142 fps=491 q=-0.0 size=N/A time=00:22:20.58 bitrate=N/A speed=20.5x    frame=32361 fps=490 q=-0.0 size=N/A time=00:22:29.72 bitrate=N/A speed=20.5x    frame=32588 fps=490 q=-0.0 size=N/A time=00:22:39.19 bitrate=N/A speed=20.4x    frame=32816 fps=490 q=-0.0 size=N/A time=00:22:48.70 bitrate=N/A speed=20.4x    frame=33061 fps=489 q=-0.0 size=N/A time=00:22:58.91 bitrate=N/A speed=20.4x    frame=33258 fps=489 q=-0.0 size=N/A time=00:23:07.13 bitrate=N/A speed=20.4x    frame=33470 fps=488 q=-0.0 size=N/A time=00:23:15.97 bitrate=N/A speed=20.4x    frame=33694 fps=488 q=-0.0 size=N/A time=00:23:25.32 bitrate=N/A speed=20.3x    frame=33911 fps=487 q=-0.0 size=N/A time=00:23:34.37 bitrate=N/A speed=20.3x    frame=34142 fps=487 q=-0.0 size=N/A time=00:23:44.00 bitrate=N/A speed=20.3x    frame=34358 fps=486 q=-0.0 size=N/A time=00:23:53.01 bitrate=N/A speed=20.3x    frame=34576 fps=486 q=-0.0 size=N/A time=00:24:02.10 bitrate=N/A speed=20.3x    frame=34796 fps=485 q=-0.0 size=N/A time=00:24:11.28 bitrate=N/A speed=20.2x    [Parsed_ssim_10 @ 000002b0066a6380] SSIM Y:0.994353 (22.481844) U:0.993519 (21.883548) V:0.994067 (22.267568) All:0.994166 (22.340645)
[out#0/null @ 000002b004444200] video:15037KiB audio:274060KiB subtitle:0KiB other streams:0KiB global headers:0KiB muxing overhead: unknown
frame=34995 fps=486 q=-0.0 Lsize=N/A time=00:24:19.58 bitrate=N/A speed=20.3x    
